#N canvas 1130 64 661 1004 12;
#X declare -path ../snd/upingaaq/raw/20160523T130037;
#X obj 58 225 soundfiler;
#X obj 42 646 samplerate~;
#X obj 42 625 bng 15 250 50 0 empty empty empty 17 7 0 10 -262144 -1
-1;
#X floatatom 42 670 10 0 0 0 - - -;
#X text 265 40 up sample by factor of 8;
#X obj 42 601 loadbang;
#X obj 294 975 declare -path ../snd/upingaaq/raw/20160523T130037;
#X obj 140 309 playsound~;
#X msg 50 185 read -resize original.wav array1;
#N canvas 0 22 450 300 (subpatch) 0;
#X array array1 77971 float 0;
#X coords 0 1 77970 -1 300 100 1;
#X restore 352 636 graph;
#X obj 140 357 hilbert~;
#X obj 140 411 complex-mod~;
#X obj 140 465 dac~;
#X text 263 413 comment;
#X obj 315 16 switch~ 64 1 8;
#X floatatom 267 362 5 0 0 0 - - -;
#X obj 286 316 bng 15 250 50 0 empty empty empty 17 7 0 10 -262144
-1 -1;
#X obj 47 375 env~;
#X floatatom 47 399 5 0 0 0 - - -;
#X connect 1 0 3 0;
#X connect 2 0 1 0;
#X connect 5 0 2 0;
#X connect 7 0 10 0;
#X connect 7 0 17 0;
#X connect 8 0 0 0;
#X connect 10 0 11 0;
#X connect 10 1 11 1;
#X connect 11 0 12 0;
#X connect 11 0 12 1;
#X connect 15 0 11 2;
#X connect 16 0 10 1;
#X connect 17 0 18 0;
