#N canvas 960 25 960 1147 12;
#X declare -path ./snd/Season1_New_Ice;
#X declare -path ./snd/Season2_Darkness;
#X declare -path ./snd/Season3_Sunrise;
#X declare -path ./snd/Season4_Migration;
#X declare -path ./snd/Season5_Cacophony;
#X declare -path ./snd/Season6_Bloom;
#X declare -path ./snd/Season7_Coda;
#X declare -path ./snd/SILENCE.aiff;
#X floatatom 765 63 5 0 0 0 - - - 0;
#X obj 765 11 loadbang;
#X obj 10 506 matrix_diag_mul_line~ 5 3000, f 24;
#X obj 10 610 matrix_diag_mul_line~ 5 3000, f 24;
#X obj 316 202 soundfiler;
#X obj 398 203 print;
#X floatatom 316 229 9 0 0 0 - - - 0;
#X obj 724 279 table \$0-r;
#X obj 724 301 table \$0-c;
#X obj 724 323 table \$0-ls;
#X obj 724 345 table \$0-rs;
#X obj 765 35 f \$1;
#X text 646 65 SFP ID num (0-7);
#X floatatom 808 63 5 0 0 0 - - - 0;
#X obj 808 35 f \$0;
#X text 847 63 window number;
#X obj 10 674 matrix_diag_mul_line~ 5 3000, f 24;
#X obj 316 149 pack s f;
#X obj 11 350 tabread4~ \$0-l;
#X obj 51 373 tabread4~ \$0-r;
#X obj 92 397 tabread4~ \$0-c;
#X obj 133 427 tabread4~ \$0-ls;
#X obj 174 453 tabread4~ \$0-rs;
#X obj 724 257 table \$0-l;
#X obj 10 252 phasor~;
#X floatatom 316 276 10 0 0 0 - - - 0;
#X text 386 227 num samples;
#X obj 316 252 / 44100;
#X obj 316 301 expr 1/$f1;
#X text 390 277 in seconds;
#X text 373 253 / by fs;
#X floatatom 316 325 10 0 0 0 - - - 0;
#X text 389 327 phasor speed;
#X obj 10 316 *~;
#X obj 488 320 s \$0-N;
#X obj 43 286 r \$0-N;
#X obj 316 348 s \$0-f;
#X text 366 348 aka frequency;
#X text 487 343 number of samples;
#X msg 208 218 0;
#X text 721 237 tables for 5 channels;
#X text 371 21 receive file from "track" control;
#X obj 369 114 f \$0;
#X obj 369 91 bng 15 250 50 0 empty empty empty 17 7 0 10 #fcfcfc #000000
#000000;
#X text 389 89 pass window number to soundfiler;
#X obj 369 66 loadbang;
#X obj 9 182 f;
#X msg 126 156 0;
#X obj 95 124 t b b;
#X obj 8 17 r \$0-f;
#X obj 8 77 *;
#X msg 316 175 read -resize \$1 \$2-l \$2-r \$2-c \$2-ls \$2-rs;
#X obj 312 411 sel 1 0;
#X msg 312 433 0;
#X msg 346 433 1;
#X text 377 418 if mute is on then x by 0;
#X obj 10 728 5revs, f 30;
#X floatatom 230 719 5 0 0 0 - - - 0;
#X text 171 43 route >>> restart;
#X floatatom 681 449 5 0 0 0 - - - 0;
#X text 665 406 unused var from [p season];
#X text 223 667 roll used for DW of reverbs;
#X obj 387 607 tgl 15 0 empty empty empty 17 7 0 10 #fcfcfc #000000
#000000 0 1;
#X floatatom 407 605 5 0 0 0 - - - 0;
#X msg 387 629 diag \$1 \$1 \$1 \$1 \$1;
#X msg 207 532 diag \$1 \$1 \$1 \$1 \$1;
#X msg 312 463 diag \$1 \$1 \$1 \$1 \$1;
#X msg 203 139 0;
#X obj 177 115 t b b;
#X obj 69 42 t b f;
#X text 518 503 if each SFP is a subprocess then we have to manually
pass filenames to each. in fact ALL the variables controlled in main
will need to be explicitly sent to each subprocess. that is:;
#X msg 685 96 \; pd dsp 1;
#X obj 69 17 r speed;
#X obj 177 61 r route;
#X obj 315 22 r file;
#X obj 312 389 r mute;
#X obj 207 506 r gain;
#X obj 387 580 r solo;
#X obj 226 686 r roll;
#X obj 681 425 r distance;
#X obj 177 85 sel 1;
#X obj 209 172 r stop;
#X obj 209 196 sel 1;
#X obj 95 76 r play;
#X obj 95 100 sel 1;
#X obj 658 761 declare -path ./snd/Season1_New_Ice;
#X text 656 738 declare path to snd files;
#X obj 658 784 declare -path ./snd/Season2_Darkness;
#X obj 658 807 declare -path ./snd/Season3_Sunrise;
#X obj 658 830 declare -path ./snd/Season4_Migration;
#X obj 658 853 declare -path ./snd/Season5_Cacophony;
#X obj 658 876 declare -path ./snd/Season6_Bloom;
#X obj 658 899 declare -path ./snd/Season7_Coda;
#X obj 658 922 declare -path ./snd/SILENCE.aiff;
#X text 748 104 sub-process DSP on;
#X text 539 573 speed \, route \, stop \, gain \, mute \, roll \, elev
\, distance \, file and play (etc.);
#X obj 8 107 t b f;
#X obj 217 587 loadbang;
#X msg 217 611 0;
#X text 70 -1 playback starts automatically;
#X text 620 174 \$0 becomes \$2;
#X text 214 570 init reverb at 0;
#X floatatom 330 763 5 0 0 0 - - - 0;
#X obj 330 739 r elev;
#X text 326 717 don't pass elevation from [p season];
#X text 379 736 2D;
#X obj 10 796 5-0-enc8 30;
#X obj 93 796 5-0-enc8 -30;
#X obj 181 796 5-0-enc8 0;
#X obj 255 796 5-0-enc8 110;
#X obj 344 796 5-0-enc8 -110;
#X text 445 796 9x5 connections;
#X obj 179 846 dac~ 1 2 3 4 5 6 7 8 9, f 12;
#X connect 1 0 11 0;
#X connect 1 0 14 0;
#X connect 1 0 71 0;
#X connect 2 0 3 0;
#X connect 2 1 3 1;
#X connect 2 2 3 2;
#X connect 2 3 3 3;
#X connect 2 4 3 4;
#X connect 3 0 16 0;
#X connect 3 1 16 1;
#X connect 3 2 16 2;
#X connect 3 3 16 3;
#X connect 3 4 16 4;
#X connect 4 0 6 0;
#X connect 6 0 27 0;
#X connect 6 0 34 0;
#X connect 11 0 0 0;
#X connect 14 0 13 0;
#X connect 16 0 56 0;
#X connect 16 1 56 1;
#X connect 16 2 56 2;
#X connect 16 3 56 3;
#X connect 16 4 56 4;
#X connect 17 0 51 0;
#X connect 18 0 2 0;
#X connect 19 0 2 1;
#X connect 20 0 2 2;
#X connect 21 0 2 3;
#X connect 22 0 2 4;
#X connect 24 0 33 0;
#X connect 25 0 28 0;
#X connect 27 0 25 0;
#X connect 28 0 31 0;
#X connect 31 0 36 0;
#X connect 33 0 18 0;
#X connect 33 0 19 0;
#X connect 33 0 20 0;
#X connect 33 0 21 0;
#X connect 33 0 22 0;
#X connect 35 0 33 1;
#X connect 39 0 24 0;
#X connect 39 0 24 1;
#X connect 42 0 17 1;
#X connect 43 0 42 0;
#X connect 45 0 43 0;
#X connect 46 0 24 0;
#X connect 47 0 24 1;
#X connect 48 0 46 0;
#X connect 48 1 47 0;
#X connect 49 0 50 0;
#X connect 50 0 96 0;
#X connect 51 0 4 0;
#X connect 52 0 53 0;
#X connect 52 1 54 0;
#X connect 53 0 66 0;
#X connect 54 0 66 0;
#X connect 56 0 106 0;
#X connect 56 1 107 0;
#X connect 56 2 108 0;
#X connect 56 3 109 0;
#X connect 56 4 110 0;
#X connect 62 0 64 0;
#X connect 64 0 16 0;
#X connect 65 0 3 0;
#X connect 66 0 2 0;
#X connect 67 0 24 1;
#X connect 68 0 46 0;
#X connect 68 1 67 0;
#X connect 69 0 50 0;
#X connect 69 1 50 1;
#X connect 72 0 69 0;
#X connect 73 0 80 0;
#X connect 74 0 17 0;
#X connect 75 0 52 0;
#X connect 76 0 65 0;
#X connect 77 0 62 0;
#X connect 77 0 63 0;
#X connect 78 0 56 5;
#X connect 78 0 57 0;
#X connect 79 0 59 0;
#X connect 80 0 68 0;
#X connect 81 0 82 0;
#X connect 82 0 39 0;
#X connect 83 0 84 0;
#X connect 84 0 48 0;
#X connect 96 0 46 0;
#X connect 96 1 46 1;
#X connect 97 0 98 0;
#X connect 98 0 56 5;
#X connect 103 0 102 0;
#X connect 106 0 112 0;
#X connect 106 1 112 1;
#X connect 106 2 112 2;
#X connect 106 3 112 3;
#X connect 106 4 112 4;
#X connect 106 5 112 5;
#X connect 106 6 112 6;
#X connect 106 7 112 7;
#X connect 106 8 112 8;
#X connect 107 1 112 0;
#X connect 107 2 112 1;
#X connect 107 3 112 2;
#X connect 107 4 112 3;
#X connect 107 5 112 4;
#X connect 107 6 112 5;
#X connect 107 7 112 6;
#X connect 107 8 112 7;
#X connect 108 1 112 0;
#X connect 108 2 112 1;
#X connect 108 3 112 2;
#X connect 108 4 112 3;
#X connect 108 5 112 4;
#X connect 108 6 112 5;
#X connect 108 7 112 6;
#X connect 108 8 112 7;
#X connect 109 0 112 0;
#X connect 109 1 112 1;
#X connect 109 2 112 2;
#X connect 109 3 112 3;
#X connect 109 4 112 4;
#X connect 109 5 112 5;
#X connect 109 6 112 6;
#X connect 109 7 112 7;
#X connect 109 8 112 8;
#X connect 110 0 112 0;
#X connect 110 1 112 1;
#X connect 110 2 112 2;
#X connect 110 3 112 3;
#X connect 110 4 112 4;
#X connect 110 5 112 5;
#X connect 110 6 112 6;
#X connect 110 7 112 7;
#X connect 110 8 112 8;
