#N canvas 0 25 960 560 12;
#X obj 248 177 cnv 15 78 15 empty empty empty 20 12 0 14 #fcac44 #404040
0;
#X text 351 180 1.arg: <float> ambisonic order;
#X text 362 192 (1 .. 12 for 2 dimensional use);
#X floatatom 265 87 5 -180 180 0 - - - 0;
#X floatatom 178 88 5 -90 90 0 - - - 0;
#X obj 247 148 pack 0 0;
#X obj 265 126 t b f;
#X text 267 68 phi;
#X text 364 205 (1 .. 5 for 3 dimensional use);
#X text 175 69 theta;
#X obj 247 203 t b a;
#X text 312 72 -180 <= phi <= +180;
#X text 312 60 -90 <= theta <= +90;
#X text 350 236 signal to encode;
#X text 142 89 elev;
#X text 237 87 azi;
#X text 58 285 kronlachner has converter;
#X text 578 288 fade time in [ms];
#X text 580 255 the last inlet gets the fade-time between two matrix-messages.
;
#X text 421 267 signal in;
#X obj 405 15 inlet~;
#X obj 265 8 loadbang;
#X obj 265 33 f \$1;
#X text 60 32 azimuth of src. creation arg;
#X obj 456 15 inlet;
#X text 510 15 inlets for mono input signals and elevation;
#X obj 157 336 outlet~;
#X obj 167 346 outlet~;
#X obj 177 356 outlet~;
#X obj 187 366 outlet~;
#X obj 197 376 outlet~;
#X obj 207 386 outlet~;
#X obj 217 396 outlet~;
#X obj 227 406 outlet~;
#X obj 237 416 outlet~;
#X text 501 100 encode each channel from 5 snd file into 2OA. the creation
argument \$1 is the azimuth position of the track. in iem_ambi azimuth
increases counter-clockwise (+30 is Left).;
#X obj 247 176 ambi_encode 2;
#X obj 247 234 mtx 9 1;
#X text 58 267 9 harmonics come out in SID channel ordering;
#X obj 248 286 mtx_*~ 9 1 100, f 46;
#X connect 3 0 6 0;
#X connect 4 0 5 0;
#X connect 5 0 36 0;
#X connect 6 0 5 0;
#X connect 6 1 5 1;
#X connect 10 0 37 0;
#X connect 10 1 37 0;
#X connect 20 0 39 1;
#X connect 21 0 22 0;
#X connect 22 0 3 0;
#X connect 24 0 4 0;
#X connect 36 0 10 0;
#X connect 37 0 39 0;
#X connect 39 0 26 0;
#X connect 39 1 27 0;
#X connect 39 2 28 0;
#X connect 39 3 29 0;
#X connect 39 4 30 0;
#X connect 39 5 31 0;
#X connect 39 6 32 0;
#X connect 39 7 33 0;
#X connect 39 8 34 0;
