#N canvas 960 25 960 560 12;
#X obj 595 378 rev1~, f 7;
#X obj 112 508 outlet~;
#X obj 538 242 loadbang;
#X text 568 288 db after 1 sec;
#X obj 111 122 inlet~;
#X obj 168 122 inlet~;
#X obj 224 122 inlet~;
#X obj 281 122 inlet~;
#X obj 335 122 inlet~;
#X obj 111 273 dw;
#X obj 168 273 dw;
#X obj 224 273 dw;
#X obj 281 273 dw;
#X obj 335 273 dw;
#X obj 169 508 outlet~;
#X obj 228 508 outlet~;
#X obj 285 508 outlet~;
#X obj 343 508 outlet~;
#X obj 537 378 rev1~, f 7;
#X obj 479 378 rev1~, f 7;
#X obj 421 378 rev1~, f 7;
#X obj 362 377 rev1~, f 7;
#X obj 387 122 inlet;
#X msg 538 293 70;
#X text 386 104 0-1 val for DWs;
#X text 108 102 L R C Ls Rs;
#X text 596 306 reverb time is 2 seconds;
#X text 5 274 dry/wet module;
#X text 401 509 combine dry and wet signals together;
#X text 509 13 5 reverbs for mono signals from 5 files. right outlet
of [dw] gets sent to reverbs. left outlet goes directly to output without
any processing. the two signals are summed at the output of this abstraction.
;
#X text 772 101 this is expensive!!!;
#X connect 0 0 17 0;
#X connect 2 0 23 0;
#X connect 4 0 9 0;
#X connect 5 0 10 0;
#X connect 6 0 11 0;
#X connect 7 0 12 0;
#X connect 8 0 13 0;
#X connect 9 0 1 0;
#X connect 9 1 21 0;
#X connect 10 0 14 0;
#X connect 10 1 20 0;
#X connect 11 0 15 0;
#X connect 11 1 19 0;
#X connect 12 0 16 0;
#X connect 12 1 18 0;
#X connect 13 0 17 0;
#X connect 13 1 0 0;
#X connect 18 0 16 0;
#X connect 19 0 15 0;
#X connect 20 0 14 0;
#X connect 21 0 1 0;
#X connect 22 0 13 1;
#X connect 22 0 12 1;
#X connect 22 0 11 1;
#X connect 22 0 10 1;
#X connect 22 0 9 1;
#X connect 23 0 0 1;
#X connect 23 0 18 1;
#X connect 23 0 19 1;
#X connect 23 0 20 1;
#X connect 23 0 21 1;
