#N canvas 0 612 960 560 12;
#X symbolatom 131 123 30 0 0 0 - - -;
#X symbolatom 131 145 30 0 0 0 - - -;
#X symbolatom 131 167 30 0 0 0 - - -;
#X symbolatom 131 189 30 0 0 0 - - -;
#X symbolatom 131 211 30 0 0 0 - - -;
#X symbolatom 131 233 30 0 0 0 - - -;
#X symbolatom 131 255 30 0 0 0 - - -;
#X symbolatom 131 277 30 0 0 0 - - -;
#N canvas 0 25 960 560 set-symbol 1;
#X obj 711 95 r 7_sfp_file;
#X msg 53 143 set \$1;
#X msg 147 143 set \$1;
#X msg 239 143 set \$1;
#X msg 334 143 set \$1;
#X msg 429 143 set \$1;
#X msg 524 143 set \$1;
#X msg 616 143 set \$1;
#X msg 711 143 set \$1;
#X obj 53 167 outlet;
#X obj 147 167 outlet;
#X obj 239 167 outlet;
#X obj 334 167 outlet;
#X obj 429 167 outlet;
#X obj 524 167 outlet;
#X obj 616 167 outlet;
#X obj 711 167 outlet;
#X text 52 14 it is useful to be able to see which files are loaded
unto each SFP. here we receive filenames from [p season] and pass the
strings to the symbol objects for displaying in main.pd;
#X obj 739 381 symbol;
#X msg 703 420 set \$1;
#X symbolatom 703 444 10 0 0 0 - - -;
#X msg 742 309 baz;
#X msg 779 309 foo;
#X msg 818 309 bar;
#X obj 711 119 symbol;
#X obj 53 95 r 0_sfp_file;
#X obj 147 95 r 1_sfp_file;
#X obj 239 95 r 2_sfp_file;
#X obj 334 95 r 3_sfp_file;
#X obj 429 95 r 4_sfp_file;
#X obj 524 95 r 5_sfp_file;
#X obj 616 95 r 6_sfp_file;
#X obj 53 119 symbol;
#X obj 147 119 symbol;
#X obj 239 119 symbol;
#X obj 334 119 symbol;
#X obj 429 119 symbol;
#X obj 524 119 symbol;
#X obj 616 119 symbol;
#X connect 0 0 24 0;
#X connect 1 0 9 0;
#X connect 2 0 10 0;
#X connect 3 0 11 0;
#X connect 4 0 12 0;
#X connect 5 0 13 0;
#X connect 6 0 14 0;
#X connect 7 0 15 0;
#X connect 8 0 16 0;
#X connect 18 0 19 0;
#X connect 19 0 20 0;
#X connect 21 0 18 0;
#X connect 22 0 18 0;
#X connect 23 0 18 0;
#X connect 24 0 8 0;
#X connect 25 0 32 0;
#X connect 26 0 33 0;
#X connect 27 0 34 0;
#X connect 28 0 35 0;
#X connect 29 0 36 0;
#X connect 30 0 37 0;
#X connect 31 0 38 0;
#X connect 32 0 1 0;
#X connect 33 0 2 0;
#X connect 34 0 3 0;
#X connect 35 0 4 0;
#X connect 36 0 5 0;
#X connect 37 0 6 0;
#X connect 38 0 7 0;
#X restore 7 59 pd set-symbol;
#X text 10 12 set symbols for GUI \, visual guide for NK2 player;
#X connect 8 0 0 0;
#X connect 8 1 1 0;
#X connect 8 2 2 0;
#X connect 8 3 3 0;
#X connect 8 4 4 0;
#X connect 8 5 5 0;
#X connect 8 6 6 0;
#X connect 8 7 7 0;
#X coords 0 -1 1 1 250 200 1 100 100;
