#N canvas 960 25 960 560 12;
#X floatatom 239 280 0 0 1000 0 - - - 0;
#X text 293 332 signal input (delay time in ms);
#X text 377 365 creation argument: name of delay line;
#X obj 239 365 delread4~ \$0-delay;
#X obj 40 144 delwrite~ \$0-delay 1000;
#X obj 239 333 line~;
#X obj 239 389 *~;
#X obj 24 101 inlet~;
#X text 268 279 delay time;
#X obj 20 492 +~;
#X obj 20 534 outlet~;
#X obj 375 103 tgl 15 0 empty empty empty 17 7 0 10 #fcfcfc #000000
#000000 0 1;
#X obj 375 274 lop~ 0.5;
#X text 390 103 on/off;
#X obj 240 171 sel 1 0;
#X obj 240 195 random 500;
#X obj 240 219 + 500;
#X obj 239 308 pack 0 100;
#X obj 375 131 sel 1 0;
#X obj 375 155 random 1000;
#X obj 375 179 / 1000;
#X text 426 178 range 0 to 1;
#X text 222 146 random delay time;
#X obj 375 203 / 2;
#X text 404 203 range 0 to 0.5;
#X floatatom 375 227 5 0 0 0 - - - 0;
#X obj 375 250 + 0.5;
#X text 416 251 random FB gain between 0.5 and 1;
#X msg 510 152 0;
#X obj 263 428 s~ \$0-dla-fb-loop;
#X obj 82 103 r~ \$0-dla-fb-loop;
#X floatatom 630 490 5 0 0 0 - - - 0;
#X obj 630 438 loadbang;
#X obj 630 462 f \$1;
#X text 511 492 SFP ID num (0-7);
#X floatatom 673 490 5 0 0 0 - - - 0;
#X obj 673 462 f \$0;
#X text 712 490 window number;
#X text 5 3 a simple abstraction to DLA the quartets signal using feedback.
creation argument between 0 and 3 random DLA time between 500-1000ms.
;
#X text 478 62 use creation argument;
#X text 82 83 use window number;
#X obj 375 64 r \$1-inst-sfx;
#X connect 0 0 17 0;
#X connect 3 0 6 0;
#X connect 5 0 3 0;
#X connect 6 0 9 1;
#X connect 6 0 29 0;
#X connect 7 0 4 0;
#X connect 7 0 9 0;
#X connect 9 0 10 0;
#X connect 11 0 14 0;
#X connect 11 0 18 0;
#X connect 12 0 6 1;
#X connect 14 0 15 0;
#X connect 15 0 16 0;
#X connect 16 0 0 0;
#X connect 17 0 5 0;
#X connect 18 0 19 0;
#X connect 18 1 28 0;
#X connect 19 0 20 0;
#X connect 20 0 23 0;
#X connect 23 0 25 0;
#X connect 25 0 26 0;
#X connect 26 0 12 0;
#X connect 28 0 12 0;
#X connect 30 0 4 0;
#X connect 32 0 33 0;
#X connect 32 0 36 0;
#X connect 33 0 31 0;
#X connect 36 0 35 0;
#X connect 41 0 11 0;
