#N canvas 1713 1172 960 560 12;
#X msg 212 386 print;
#X text 20 195 start streaming audio;
#X text 25 211 stop streaming audio;
#X text 618 507 The creation argument is the number of channels (1
to 64)., f 29;
#X msg 847 133 \; pd dsp \$1;
#X obj 847 104 tgl 15 0 empty empty empty 17 7 0 10 #fcfcfc #000000
#000000 0 1;
#X text 869 102 DSP on/off;
#X obj 149 507 writesf~ 20, f 62;
#X obj 846 21 loadbang;
#X msg 846 45 1;
#X obj 425 411 adc~ 1 2 3 4 5 6 7 8 9 10 11 12 13 14 15 16 17 18 19
20;
#X text 421 390 ins from super-process;
#X obj 189 237 r rec_filename;
#X obj 49 237 r rec_status;
#X text 480 161 1 open filename;
#X text 480 181 2 start;
#X text 480 201 3 stop;
#X text 510 251 * do not end sub-process before stopping!;
#X text 193 209 pass filename;
#X text 6 6 collect all 16 harmonics and record them along with the
four live mics without any processing. rec_status will pass messages
"start" and "stop" which begin and end recording. rec_filename will
be used to pass a path to the sub-process.;
#X text 329 308 the ambisonic recording is in SID format. we recommend
using the ambix plug-in suite to convert to ambix. the suite is by
matthias kronlachner;
#X connect 0 0 7 0;
#X connect 5 0 4 0;
#X connect 8 0 9 0;
#X connect 9 0 5 0;
#X connect 10 0 7 0;
#X connect 10 1 7 1;
#X connect 10 2 7 2;
#X connect 10 3 7 3;
#X connect 10 4 7 4;
#X connect 10 5 7 5;
#X connect 10 6 7 6;
#X connect 10 7 7 7;
#X connect 10 8 7 8;
#X connect 10 9 7 9;
#X connect 10 10 7 10;
#X connect 10 11 7 11;
#X connect 10 12 7 12;
#X connect 10 13 7 13;
#X connect 10 14 7 14;
#X connect 10 15 7 15;
#X connect 10 16 7 16;
#X connect 10 17 7 17;
#X connect 10 18 7 18;
#X connect 10 19 7 19;
#X connect 12 0 7 0;
#X connect 13 0 7 0;
