#N canvas 960 25 960 1147 12;
#X obj 571 86 r sfx-status;
#X text 5 34 logic: if SFX is off then the signals goes through unaffected
and is played back from the corner it corresponds to. if SFX is on
then the signals goes through a delay with feedback and we modulate
the elevation and azimuth of the VBAP object;
#X floatatom 144 393 5 0 0 2 - - - 0;
#X floatatom 188 444 5 0 0 2 - - - 0;
#X floatatom 240 584 0 0 0 3 actual_azimuth - - 0;
#X floatatom 252 550 0 0 0 3 actual_elevation - - 0;
#X floatatom 267 527 7 0 0 1 actual_spreading - - 0;
#X obj 147 377 hsl 100 13 0 360 0 0 empty empty azimuth 10 7 0 10 #fcfcfc
#000000 #000000 0 1;
#X obj 191 427 hsl 100 13 0 360 0 0 empty empty elevation 10 7 0 10
#fcfcfc #000000 #000000 0 1;
#X floatatom 228 504 5 0 0 2 - - - 0;
#X obj 231 487 hsl 100 13 0 100 0 0 empty empty spread 10 7 0 10 #fcfcfc
#000000 #000000 0 1;
#X text 338 485 (0-100);
#X text 298 424 (0-360);
#X text 250 381 (0-360);
#X obj 18 142 loadbang;
#X text 47 220 16 channels is the limit!;
#X obj 113 526 vbap 90 0 30;
#X msg 22 285 \; pd dsp 1;
#X text 484 478 in VBAP -45 is 45 degrees to the left!;
#X text 5 6 sub-process to spatialize ADC~ input signals;
#X obj 571 113 sel 1 0, f 15;
#X obj 604 249 tgl 15 0 empty empty empty 17 7 0 10 #fcfcfc #000000
#000000 0 1;
#X obj 641 164 f;
#X obj 695 108 r default-azi;
#X msg 604 222 1;
#X obj 641 137 t b b;
#X msg 683 209 0;
#X text 695 158 turn off spigot;
#X text 714 185 then pass val;
#X text 9 111 we will use 4 of these sub-processes;
#X text 241 1043 these are sent to super-process not DAC;
#X text 109 575 dsp on in pd~;
#X msg 28 170 define_loudspeakers 3 -22.5 30 22.5 30 67.5 30 112.5
30 157.5 30 202.5 30 247.5 30 292.5 30 -22.5 0 22.5 0 67.5 0 112.5
0 157.5 0 202.5 0 247.5 0 292.5 0;
#X text 481 519 = 16 real channels [definition in 3D];
#X text 512 541 2 rings of 8 channels. top ring left channel is 1 bottom
ring left channel is 9;
#X text 89 152 two rings (outputs 1-16 \, elevations = 30 and 0);
#X obj 571 140 t b b;
#X floatatom 676 321 5 0 0 0 - - - 0;
#X text 671 342 default elev 0;
#X obj 101 689 vsl 15 128 0 1 0 0 empty empty empty 0 -9 0 10 #fcfcfc
#000000 #000000 0 1;
#X floatatom 101 825 3 0 0 0 - - - 0;
#X obj 127 689 vsl 15 128 0 1 0 0 empty empty empty 0 -9 0 10 #fcfcfc
#000000 #000000 0 1;
#X floatatom 127 825 3 0 0 0 - - - 0;
#X obj 153 689 vsl 15 128 0 1 0 0 empty empty empty 0 -9 0 10 #fcfcfc
#000000 #000000 0 1;
#X floatatom 153 825 3 0 0 0 - - - 0;
#X obj 179 689 vsl 15 128 0 1 0 0 empty empty empty 0 -9 0 10 #fcfcfc
#000000 #000000 0 1;
#X floatatom 179 825 3 0 0 0 - - - 0;
#X obj 205 689 vsl 15 128 0 1 0 0 empty empty empty 0 -9 0 10 #fcfcfc
#000000 #000000 0 1;
#X floatatom 205 825 3 0 0 0 - - - 0;
#X obj 231 689 vsl 15 128 0 1 0 0 empty empty empty 0 -9 0 10 #fcfcfc
#000000 #000000 0 1;
#X floatatom 231 825 3 0 0 0 - - - 0;
#X obj 257 689 vsl 15 128 0 1 0 0 empty empty empty 0 -9 0 10 #fcfcfc
#000000 #000000 0 1;
#X floatatom 257 825 3 0 0 0 - - - 0;
#X obj 283 689 vsl 15 128 0 1 0 0 empty empty empty 0 -9 0 10 #fcfcfc
#000000 #000000 0 1;
#X floatatom 283 825 3 0 0 0 - - - 0;
#X obj 310 689 vsl 15 128 0 1 0 0 empty empty empty 0 -9 0 10 #fcfcfc
#000000 #000000 0 1;
#X floatatom 310 825 3 0 0 0 - - - 0;
#X obj 336 689 vsl 15 128 0 1 0 0 empty empty empty 0 -9 0 10 #fcfcfc
#000000 #000000 0 1;
#X floatatom 336 825 3 0 0 0 - - - 0;
#X obj 362 689 vsl 15 128 0 1 0 0 empty empty empty 0 -9 0 10 #fcfcfc
#000000 #000000 0 1;
#X floatatom 362 825 3 0 0 0 - - - 0;
#X obj 388 689 vsl 15 128 0 1 0 0 empty empty empty 0 -9 0 10 #fcfcfc
#000000 #000000 0 1;
#X floatatom 388 825 3 0 0 0 - - - 0;
#X obj 414 689 vsl 15 128 0 1 0 0 empty empty empty 0 -9 0 10 #fcfcfc
#000000 #000000 0 1;
#X floatatom 414 825 3 0 0 0 - - - 0;
#X obj 440 689 vsl 15 128 0 1 0 0 empty empty empty 0 -9 0 10 #fcfcfc
#000000 #000000 0 1;
#X floatatom 440 825 3 0 0 0 - - - 0;
#X obj 466 689 vsl 15 128 0 1 0 0 empty empty empty 0 -9 0 10 #fcfcfc
#000000 #000000 0 1;
#X floatatom 466 825 3 0 0 0 - - - 0;
#X msg 529 668 0;
#X obj 102 977 *~;
#X obj 128 977 *~;
#X obj 154 977 *~;
#X obj 180 977 *~;
#X obj 206 977 *~;
#X obj 232 977 *~;
#X obj 258 977 *~;
#X obj 284 977 *~;
#X obj 311 977 *~;
#X obj 337 977 *~;
#X obj 363 977 *~;
#X obj 389 977 *~;
#X obj 415 977 *~;
#X obj 441 977 *~;
#X obj 467 977 *~;
#X text 506 686 rejection hurts;
#X text 536 647 clear;
#X obj 701 909 adc~;
#X obj 701 933 *~ 1;
#X text 734 910 from super-process;
#X obj 101 858 lop~ 2;
#X obj 128 888 lop~ 2;
#X obj 153 858 lop~ 2;
#X obj 179 888 lop~ 2;
#X obj 205 858 lop~ 2;
#X obj 231 888 lop~ 2;
#X obj 257 858 lop~ 2;
#X obj 310 858 lop~ 2;
#X obj 283 888 lop~ 2;
#X obj 336 888 lop~ 2;
#X obj 362 858 lop~ 2;
#X obj 388 888 lop~ 2;
#X obj 414 858 lop~ 2;
#X obj 440 888 lop~ 2;
#X obj 466 858 lop~ 2;
#X obj 114 347 t b f, f 6;
#X obj 92 651 route 0 1 2 3 4 5 6 7 8 9 10 11 12 13 14 15, f 57;
#X obj 489 690 vsl 15 128 0 1 0 0 empty empty empty 0 -9 0 10 #fcfcfc
#000000 #000000 0 1;
#X floatatom 493 825 3 0 0 0 - - - 0;
#X obj 494 888 lop~ 2;
#X obj 123 1016 dac~ 1 2 3 4 5 6 7 8 9 10 11 12 13 14 15 16, f 49
;
#X obj 493 977 *~;
#N canvas 0 25 960 560 LFOs 0;
#X obj 428 12 inlet;
#X text 188 11 inlet for bang to set new random;
#X obj 600 33 inlet;
#X text 600 11 inlet for spigot status;
#X obj 355 451 outlet;
#X text 355 474 azimuth;
#X obj 515 451 outlet;
#X text 515 474 elev;
#X obj 383 287 unsig~;
#X floatatom 383 311 12 0 0 0 - - - 0;
#X obj 383 258 lop~ 2;
#X obj 383 358 line 0 20, f 12;
#X floatatom 384 132 5 0 100 0 - - - 0;
#X floatatom 384 181 5 0 0 0 - - - 0;
#X obj 384 157 / 1000;
#X obj 384 208 phasor~;
#X obj 384 105 random 100;
#X obj 383 234 *~ 360;
#X obj 383 382 spigot;
#X floatatom 383 406 5 0 0 0 - - - 0;
#X text 245 146 turn on spigot;
#X text 176 168 then randomize LFO speed;
#X msg 383 334 \$1 100;
#X text 162 188 between 0.1 and 0.01;
#X floatatom 481 85 5 0 100 0 - - - 0;
#X floatatom 481 134 5 0 0 0 - - - 0;
#X obj 481 110 / 1000;
#X obj 481 58 random 100;
#X obj 481 287 unsig~;
#X floatatom 481 311 12 0 0 0 - - - 0;
#X obj 481 258 lop~ 2;
#X obj 481 358 line 0 20, f 12;
#X obj 481 382 spigot;
#X floatatom 481 406 5 0 0 0 - - - 0;
#X msg 481 334 \$1 100;
#X obj 481 161 osc~;
#X obj 481 185 +~ 1;
#X obj 481 209 *~ 0.5;
#X obj 719 292 loadbang;
#X msg 719 317 20;
#X obj 481 234 *~ 45;
#X obj 848 88 inlet;
#X text 5 506 azi LFO uses phasor and goes 0 to 360;
#X text 4 526 elev LFO uses osc~ and goes from 0 to 45 degrees;
#X text 752 321 metro speed for unsig;
#X text 750 342 bang every 20ms;
#X text 743 63 inlet for default azi value;
#X connect 0 0 16 0;
#X connect 0 0 27 0;
#X connect 2 0 32 1;
#X connect 2 0 18 1;
#X connect 8 0 9 0;
#X connect 9 0 22 0;
#X connect 10 0 8 0;
#X connect 11 0 18 0;
#X connect 12 0 14 0;
#X connect 13 0 15 0;
#X connect 14 0 13 0;
#X connect 15 0 17 0;
#X connect 16 0 12 0;
#X connect 17 0 10 0;
#X connect 18 0 19 0;
#X connect 19 0 4 0;
#X connect 22 0 11 0;
#X connect 24 0 26 0;
#X connect 25 0 35 0;
#X connect 26 0 25 0;
#X connect 27 0 24 0;
#X connect 28 0 29 0;
#X connect 29 0 34 0;
#X connect 30 0 28 0;
#X connect 31 0 32 0;
#X connect 32 0 33 0;
#X connect 33 0 6 0;
#X connect 34 0 31 0;
#X connect 35 0 36 0;
#X connect 36 0 37 0;
#X connect 37 0 40 0;
#X connect 38 0 39 0;
#X connect 39 0 28 1;
#X connect 39 0 8 1;
#X connect 40 0 30 0;
#X connect 41 0 19 0;
#X restore 572 300 pd LFOs;
#X f 10;
#X connect 0 0 20 0;
#X connect 2 0 16 1;
#X connect 3 0 16 2;
#X connect 7 0 2 0;
#X connect 8 0 3 0;
#X connect 9 0 16 3;
#X connect 10 0 9 0;
#X connect 14 0 17 0;
#X connect 14 0 32 0;
#X connect 16 0 106 0;
#X connect 16 1 4 0;
#X connect 16 2 5 0;
#X connect 16 3 6 0;
#X connect 20 0 36 0;
#X connect 20 1 25 0;
#X connect 21 0 112 1;
#X connect 22 0 112 2;
#X connect 23 0 22 1;
#X connect 24 0 21 0;
#X connect 25 0 22 0;
#X connect 25 1 26 0;
#X connect 26 0 21 0;
#X connect 26 0 37 0;
#X connect 32 0 16 0;
#X connect 36 0 112 0;
#X connect 36 1 24 0;
#X connect 37 0 8 0;
#X connect 39 0 40 0;
#X connect 40 0 90 0;
#X connect 41 0 42 0;
#X connect 42 0 91 0;
#X connect 43 0 44 0;
#X connect 44 0 92 0;
#X connect 45 0 46 0;
#X connect 46 0 93 0;
#X connect 47 0 48 0;
#X connect 48 0 94 0;
#X connect 49 0 50 0;
#X connect 50 0 95 0;
#X connect 51 0 52 0;
#X connect 52 0 96 0;
#X connect 53 0 54 0;
#X connect 54 0 98 0;
#X connect 55 0 56 0;
#X connect 56 0 97 0;
#X connect 57 0 58 0;
#X connect 58 0 99 0;
#X connect 59 0 60 0;
#X connect 60 0 100 0;
#X connect 61 0 62 0;
#X connect 62 0 101 0;
#X connect 63 0 64 0;
#X connect 64 0 102 0;
#X connect 65 0 66 0;
#X connect 66 0 103 0;
#X connect 67 0 68 0;
#X connect 68 0 104 0;
#X connect 69 0 67 0;
#X connect 69 0 65 0;
#X connect 69 0 63 0;
#X connect 69 0 61 0;
#X connect 69 0 59 0;
#X connect 69 0 57 0;
#X connect 69 0 55 0;
#X connect 69 0 53 0;
#X connect 69 0 51 0;
#X connect 69 0 49 0;
#X connect 69 0 47 0;
#X connect 69 0 45 0;
#X connect 69 0 43 0;
#X connect 69 0 41 0;
#X connect 69 0 39 0;
#X connect 70 0 110 0;
#X connect 71 0 110 1;
#X connect 72 0 110 2;
#X connect 73 0 110 3;
#X connect 74 0 110 4;
#X connect 75 0 110 5;
#X connect 76 0 110 6;
#X connect 77 0 110 7;
#X connect 78 0 110 8;
#X connect 79 0 110 9;
#X connect 80 0 110 10;
#X connect 81 0 110 11;
#X connect 82 0 110 12;
#X connect 83 0 110 13;
#X connect 84 0 110 14;
#X connect 87 0 88 0;
#X connect 88 0 84 1;
#X connect 88 0 83 1;
#X connect 88 0 82 1;
#X connect 88 0 81 1;
#X connect 88 0 80 1;
#X connect 88 0 79 1;
#X connect 88 0 78 1;
#X connect 88 0 77 1;
#X connect 88 0 76 1;
#X connect 88 0 75 1;
#X connect 88 0 74 1;
#X connect 88 0 73 1;
#X connect 88 0 72 1;
#X connect 88 0 71 1;
#X connect 88 0 70 1;
#X connect 88 0 111 1;
#X connect 90 0 70 0;
#X connect 91 0 71 0;
#X connect 92 0 72 0;
#X connect 93 0 73 0;
#X connect 94 0 74 0;
#X connect 95 0 75 0;
#X connect 96 0 76 0;
#X connect 97 0 78 0;
#X connect 98 0 77 0;
#X connect 99 0 79 0;
#X connect 100 0 80 0;
#X connect 101 0 81 0;
#X connect 102 0 82 0;
#X connect 103 0 83 0;
#X connect 104 0 84 0;
#X connect 105 0 16 0;
#X connect 105 1 7 0;
#X connect 106 0 39 0;
#X connect 106 1 41 0;
#X connect 106 2 43 0;
#X connect 106 3 45 0;
#X connect 106 4 47 0;
#X connect 106 5 49 0;
#X connect 106 6 51 0;
#X connect 106 7 53 0;
#X connect 106 8 55 0;
#X connect 106 9 57 0;
#X connect 106 10 59 0;
#X connect 106 11 61 0;
#X connect 106 12 63 0;
#X connect 106 13 65 0;
#X connect 106 14 67 0;
#X connect 106 15 107 0;
#X connect 107 0 108 0;
#X connect 108 0 109 0;
#X connect 109 0 111 0;
#X connect 111 0 110 15;
#X connect 112 0 105 0;
#X connect 112 1 8 0;
