#N canvas -162 449 960 1147 12;
#X obj 571 86 r sfx-status;
#X text 5 34 logic: if SFX is off then the signals goes through unaffected
and is played back from the corner it corresponds to. if SFX is on
then the signals goes through a delay with feedback and we modulate
the elevation and azimuth of the VBAP object;
#X floatatom 144 393 5 0 0 2 - - - 0;
#X floatatom 188 444 5 0 0 2 - - - 0;
#X floatatom 240 584 0 0 0 3 actual_azimuth - - 0;
#X floatatom 252 550 0 0 0 3 actual_elevation - - 0;
#X floatatom 267 527 7 0 0 1 actual_spreading - - 0;
#X obj 147 377 hsl 100 13 0 360 0 0 empty empty azimuth 10 7 0 10 #fcfcfc
#000000 #000000 0 1;
#X obj 191 427 hsl 100 13 0 360 0 0 empty empty elevation 10 7 0 10
#fcfcfc #000000 #000000 0 1;
#X floatatom 228 504 5 0 0 2 - - - 0;
#X obj 231 487 hsl 100 13 0 100 0 0 empty empty spread 10 7 0 10 #fcfcfc
#000000 #000000 0 1;
#X text 338 485 (0-100);
#X text 298 424 (0-360);
#X text 250 381 (0-360);
#X obj 18 142 loadbang;
#X text 52 210 16 channels is the limit!;
#X obj 113 526 vbap 90 0 30;
#X msg 22 285 \; pd dsp 1;
#X text 484 478 in VBAP -45 is 45 degrees to the left!;
#X text 5 6 sub-process to spatialize ADC~ input signals;
#X obj 571 113 sel 1 0, f 15;
#X obj 604 249 tgl 15 0 empty empty empty 17 7 0 10 #fcfcfc #000000
#000000 0 1;
#X obj 641 164 f;
#X obj 695 108 r default-azi;
#X msg 604 222 1;
#X obj 641 137 t b b;
#X msg 683 209 0;
#X text 695 158 turn off spigot;
#X text 714 185 then pass val;
#X text 9 111 we will use 4 of these sub-processes;
#X text 241 1043 these are sent to super-process not DAC;
#X text 13 325 dsp on in pd~;
#X obj 571 140 t b b;
#X floatatom 676 321 5 0 0 0 - - - 0;
#X text 671 342 default elev 0;
#X obj 101 689 vsl 15 128 0 1 0 0 empty empty empty 0 -9 0 10 #fcfcfc
#000000 #000000 0 1;
#X floatatom 101 825 3 0 0 0 - - - 0;
#X obj 127 689 vsl 15 128 0 1 0 0 empty empty empty 0 -9 0 10 #fcfcfc
#000000 #000000 0 1;
#X floatatom 127 825 3 0 0 0 - - - 0;
#X obj 153 689 vsl 15 128 0 1 0 0 empty empty empty 0 -9 0 10 #fcfcfc
#000000 #000000 0 1;
#X floatatom 153 825 3 0 0 0 - - - 0;
#X obj 179 689 vsl 15 128 0 1 0 0 empty empty empty 0 -9 0 10 #fcfcfc
#000000 #000000 0 1;
#X floatatom 179 825 3 0 0 0 - - - 0;
#X obj 205 689 vsl 15 128 0 1 0 0 empty empty empty 0 -9 0 10 #fcfcfc
#000000 #000000 0 1;
#X floatatom 205 825 3 0 0 0 - - - 0;
#X obj 231 689 vsl 15 128 0 1 0 0 empty empty empty 0 -9 0 10 #fcfcfc
#000000 #000000 0 1;
#X floatatom 231 825 3 0 0 0 - - - 0;
#X obj 257 689 vsl 15 128 0 1 0 0 empty empty empty 0 -9 0 10 #fcfcfc
#000000 #000000 0 1;
#X floatatom 257 825 3 0 0 0 - - - 0;
#X obj 283 689 vsl 15 128 0 1 0 0 empty empty empty 0 -9 0 10 #fcfcfc
#000000 #000000 0 1;
#X floatatom 283 825 3 0 0 0 - - - 0;
#X msg 529 668 0;
#X obj 102 977 *~;
#X obj 128 977 *~;
#X obj 154 977 *~;
#X obj 180 977 *~;
#X obj 206 977 *~;
#X obj 232 977 *~;
#X obj 258 977 *~;
#X obj 284 977 *~;
#X text 308 649 rejection hurts;
#X text 536 647 clear;
#X obj 456 881 adc~;
#X obj 456 905 *~ 1;
#X text 489 882 from super-process;
#X obj 101 858 lop~ 2;
#X obj 128 888 lop~ 2;
#X obj 153 858 lop~ 2;
#X obj 179 888 lop~ 2;
#X obj 205 858 lop~ 2;
#X obj 231 888 lop~ 2;
#X obj 257 858 lop~ 2;
#X obj 283 888 lop~ 2;
#X obj 114 347 t b f, f 6;
#N canvas 0 25 960 560 LFOs 0;
#X obj 428 12 inlet;
#X text 188 11 inlet for bang to set new random;
#X obj 600 33 inlet;
#X text 600 11 inlet for spigot status;
#X obj 355 451 outlet;
#X text 355 474 azimuth;
#X obj 383 287 unsig~;
#X floatatom 383 311 12 0 0 0 - - - 0;
#X obj 383 258 lop~ 2;
#X obj 383 358 line 0 20, f 12;
#X floatatom 384 132 5 0 100 0 - - - 0;
#X floatatom 384 181 5 0 0 0 - - - 0;
#X obj 384 157 / 1000;
#X obj 384 208 phasor~;
#X obj 384 105 random 100;
#X obj 383 234 *~ 360;
#X obj 383 382 spigot;
#X floatatom 383 406 5 0 0 0 - - - 0;
#X text 245 146 turn on spigot;
#X text 176 168 then randomize LFO speed;
#X msg 383 334 \$1 100;
#X text 162 188 between 0.1 and 0.01;
#X obj 719 292 loadbang;
#X msg 719 317 20;
#X obj 848 88 inlet;
#X text 5 506 azi LFO uses phasor and goes 0 to 360;
#X text 752 321 metro speed for unsig;
#X text 750 342 bang every 20ms;
#X text 743 63 inlet for default azi value;
#X connect 0 0 14 0;
#X connect 2 0 16 1;
#X connect 6 0 7 0;
#X connect 7 0 20 0;
#X connect 8 0 6 0;
#X connect 9 0 16 0;
#X connect 10 0 12 0;
#X connect 11 0 13 0;
#X connect 12 0 11 0;
#X connect 13 0 15 0;
#X connect 14 0 10 0;
#X connect 15 0 8 0;
#X connect 16 0 17 0;
#X connect 17 0 4 0;
#X connect 20 0 9 0;
#X connect 22 0 23 0;
#X connect 23 0 6 1;
#X connect 24 0 17 0;
#X restore 572 300 pd LFOs;
#X f 10;
#X text 89 152 one rings (outputs 1-8 \, elev 0);
#X floatatom 126 292 5 0 0 0 - - - 0;
#X text 481 519 = 8 real channels [definition in 2D];
#X obj 92 651 route 0 1 2 3 4 5 6 7, f 34;
#X obj 123 1016 dac~ 1 2 3 4 5 6 7 8, f 49;
#X msg 29 170 define_loudspeakers 2 -22.5 22.5 67.5 112.5 157.5 202.5
247.5 292.5;
#X connect 0 0 20 0;
#X connect 2 0 16 1;
#X connect 3 0 16 2;
#X connect 7 0 2 0;
#X connect 8 0 3 0;
#X connect 9 0 16 3;
#X connect 10 0 9 0;
#X connect 14 0 17 0;
#X connect 14 0 80 0;
#X connect 16 0 78 0;
#X connect 16 1 4 0;
#X connect 16 2 5 0;
#X connect 16 3 6 0;
#X connect 20 0 32 0;
#X connect 20 1 25 0;
#X connect 21 0 74 1;
#X connect 22 0 74 2;
#X connect 23 0 22 1;
#X connect 24 0 21 0;
#X connect 25 0 22 0;
#X connect 25 1 26 0;
#X connect 26 0 21 0;
#X connect 26 0 33 0;
#X connect 32 0 74 0;
#X connect 32 1 24 0;
#X connect 33 0 8 0;
#X connect 35 0 36 0;
#X connect 36 0 65 0;
#X connect 37 0 38 0;
#X connect 38 0 66 0;
#X connect 39 0 40 0;
#X connect 40 0 67 0;
#X connect 41 0 42 0;
#X connect 42 0 68 0;
#X connect 43 0 44 0;
#X connect 44 0 69 0;
#X connect 45 0 46 0;
#X connect 46 0 70 0;
#X connect 47 0 48 0;
#X connect 48 0 71 0;
#X connect 49 0 50 0;
#X connect 50 0 72 0;
#X connect 51 0 49 0;
#X connect 51 0 47 0;
#X connect 51 0 45 0;
#X connect 51 0 43 0;
#X connect 51 0 41 0;
#X connect 51 0 39 0;
#X connect 51 0 37 0;
#X connect 51 0 35 0;
#X connect 52 0 79 0;
#X connect 53 0 79 1;
#X connect 54 0 79 2;
#X connect 55 0 79 3;
#X connect 56 0 79 4;
#X connect 57 0 79 5;
#X connect 58 0 79 6;
#X connect 59 0 79 7;
#X connect 62 0 63 0;
#X connect 63 0 59 1;
#X connect 63 0 58 1;
#X connect 63 0 57 1;
#X connect 63 0 56 1;
#X connect 63 0 55 1;
#X connect 63 0 54 1;
#X connect 63 0 53 1;
#X connect 63 0 52 1;
#X connect 65 0 52 0;
#X connect 66 0 53 0;
#X connect 67 0 54 0;
#X connect 68 0 55 0;
#X connect 69 0 56 0;
#X connect 70 0 57 0;
#X connect 71 0 58 0;
#X connect 72 0 59 0;
#X connect 73 0 16 0;
#X connect 73 1 7 0;
#X connect 74 0 73 0;
#X connect 76 0 73 0;
#X connect 78 0 35 0;
#X connect 78 1 37 0;
#X connect 78 2 39 0;
#X connect 78 3 41 0;
#X connect 78 4 43 0;
#X connect 78 5 45 0;
#X connect 78 6 47 0;
#X connect 78 7 49 0;
#X connect 80 0 16 0;
