#N canvas 960 25 960 560 12;
#X msg 2 143 speed \$1;
#X obj 27 52 inlet;
#X obj 110 110 r \$1_sfp_route;
#X msg 110 143 route \$1;
#X msg 218 143 stop \$1;
#X obj 322 110 r \$1_sfp_gain;
#X msg 322 143 gain \$1;
#X obj 419 110 r \$1_sfp_mute;
#X msg 419 143 mute \$1;
#X obj 517 110 r \$1_sfp_roll;
#X msg 517 143 roll \$1;
#X msg 620 143 roll \$1;
#X obj 620 110 r \$1_sfp_elev;
#X text 544 318 sub-process helper. receives: speed \, route \, stop
\, gain \, mute \, roll \, elev \, distance and file name for each
SFP.;
#X obj 719 110 r \$1_sfp_distance;
#X msg 719 133 distance \$1;
#X obj 845 110 r \$1_sfp_file;
#X floatatom 682 61 5 0 0 0 - - - 0;
#X obj 682 7 loadbang;
#X obj 682 31 f \$1;
#X text 563 51 SFP ID num (0-7);
#X floatatom 725 64 5 0 0 0 - - - 0;
#X obj 725 31 f \$0;
#X text 764 51 window number;
#X obj 191 313 throw~ h1;
#X obj 213 337 throw~ h2;
#X obj 235 363 throw~ h3;
#X obj 257 387 throw~ h4;
#X obj 278 413 throw~ h5;
#X obj 299 440 throw~ h6;
#X obj 320 464 throw~ h7;
#X obj 343 488 throw~ h8;
#X obj 403 456 throw~ h9;
#X text 107 281 std out;
#X text 384 514 throw audio to decoder;
#X text 64 51 inlet for pd~ message to start and stop sub-processes
;
#X obj 218 110 r sfp_all_stop;
#X obj 684 188 r sfp_all_play;
#X msg 684 212 play \$1;
#X msg 833 165 file;
#X obj 833 198 list append;
#X obj 833 231 route list;
#X obj 845 140 t b a;
#X text 611 371 remember: stop and play are global;
#N canvas 0 25 960 560 tests 0;
#X floatatom 20 43 5 0 0 0 - - - 0;
#X msg 20 66 speed \$1;
#X obj 20 90 print;
#X msg 96 66 route \$1;
#X obj 96 90 print;
#X msg 96 43 1;
#X msg 168 43 1;
#X msg 168 66 stop \$1;
#X obj 168 90 print;
#X msg 702 43 1;
#X obj 702 90 print;
#X msg 702 66 play \$1;
#X floatatom 238 43 5 0 0 0 - - - 0;
#X obj 238 90 print;
#X msg 238 66 gain \$1;
#X obj 304 43 tgl 15 0 empty empty empty 17 7 0 10 #fcfcfc #000000
#000000 0 1;
#X msg 304 66 mute \$1;
#X obj 304 90 print;
#X floatatom 372 43 5 0 0 0 - - - 0;
#X obj 372 90 print;
#X msg 372 66 roll \$1;
#X obj 442 90 print;
#X msg 442 66 elev \$1;
#X msg 442 43 60;
#X obj 505 90 print;
#X msg 505 43 1;
#X msg 505 66 distance \$1;
#X msg 610 66 file;
#X obj 610 90 list append;
#X obj 610 139 print;
#X obj 610 116 route list;
#X msg 610 20 foo.wav;
#X obj 610 43 t b a;
#X text 534 120 tests;
#X obj 96 184 print;
#X msg 96 137 1;
#X msg 96 160 solo \$1;
#X msg 241 162 1;
#X msg 241 186 cycle \$1;
#X obj 241 210 print;
#X text 314 197 cycle is not used inside SFP rather [pd cycle] sends
other sub-patches messages which reset the patch;
#X connect 0 0 1 0;
#X connect 1 0 2 0;
#X connect 3 0 4 0;
#X connect 5 0 3 0;
#X connect 6 0 7 0;
#X connect 7 0 8 0;
#X connect 9 0 11 0;
#X connect 11 0 10 0;
#X connect 12 0 14 0;
#X connect 14 0 13 0;
#X connect 15 0 16 0;
#X connect 16 0 17 0;
#X connect 18 0 20 0;
#X connect 20 0 19 0;
#X connect 22 0 21 0;
#X connect 23 0 22 0;
#X connect 25 0 26 0;
#X connect 26 0 24 0;
#X connect 27 0 28 0;
#X connect 28 0 30 0;
#X connect 30 0 29 0;
#X connect 31 0 32 0;
#X connect 32 0 27 0;
#X connect 32 1 28 1;
#X connect 35 0 36 0;
#X connect 36 0 34 0;
#X connect 37 0 38 0;
#X connect 38 0 39 0;
#X restore 877 9 pd tests;
#X obj 163 346 env~;
#X floatatom 163 370 5 0 0 0 - - - 0;
#X obj 475 188 r \$1_sfp_solo;
#X msg 475 212 solo \$1;
#X text 843 86 track;
#X obj 2 110 r sfp_all_speed;
#X text 572 353 also SOLO and PLAY.;
#X obj 170 282 pd~ -ninsig 0 -noutsig 9 -fifo 20, f 49;
#X connect 0 0 52 0;
#X connect 1 0 52 0;
#X connect 2 0 3 0;
#X connect 3 0 52 0;
#X connect 4 0 52 0;
#X connect 5 0 6 0;
#X connect 6 0 52 0;
#X connect 7 0 8 0;
#X connect 8 0 52 0;
#X connect 9 0 10 0;
#X connect 10 0 52 0;
#X connect 11 0 52 0;
#X connect 12 0 11 0;
#X connect 14 0 15 0;
#X connect 15 0 52 0;
#X connect 16 0 42 0;
#X connect 18 0 19 0;
#X connect 18 0 22 0;
#X connect 19 0 17 0;
#X connect 22 0 21 0;
#X connect 36 0 4 0;
#X connect 37 0 38 0;
#X connect 38 0 52 0;
#X connect 39 0 40 0;
#X connect 40 0 41 0;
#X connect 41 0 52 0;
#X connect 42 0 39 0;
#X connect 42 1 40 1;
#X connect 45 0 46 0;
#X connect 47 0 48 0;
#X connect 48 0 52 0;
#X connect 50 0 0 0;
#X connect 52 1 24 0;
#X connect 52 1 45 0;
#X connect 52 2 25 0;
#X connect 52 3 26 0;
#X connect 52 4 27 0;
#X connect 52 5 28 0;
#X connect 52 6 29 0;
#X connect 52 7 30 0;
#X connect 52 8 31 0;
#X connect 52 9 32 0;
