#N canvas 75 108 964 757 12;
#N canvas 0 22 450 300 (subpatch) 0;
#X array array3 78003 float 0;
#X coords 0 1 78002 -1 300 100 1 0 0;
#X restore 541 377 graph;
#X obj 38 392 soundfiler;
#X text 565 69 aif files aree quite large \, i want to see if I can
load other types of files such as flac \, ogg \, or mp3.;
#N canvas 0 22 450 300 (subpatch) 0;
#X array array4 78003 float 0;
#X coords 0 1 78002 -1 300 100 1 0 0;
#X restore 546 512 graph;
#N canvas 0 22 450 300 (subpatch) 0;
#X array array5 78003 float 0;
#X coords 0 1 78002 -1 300 100 1 0 0;
#X restore 545 636 graph;
#N canvas 0 22 450 300 (subpatch) 0;
#X array array1 78003 float 0;
#X coords 0 1 78002 -1 300 100 1 0 0;
#X restore 541 141 graph;
#N canvas 0 22 450 300 (subpatch) 0;
#X array array2 78003 float 0;
#X coords 0 1 78002 -1 300 100 1;
#X restore 541 259 graph;
#X msg 25 141 read -resize Season1_0_New_Ice.flac array1 array2 array3
array4 array5;
#X text 18 11 flac does not work;
#X msg 122 274 read -resize break-science.mp3 array1 array2;
#X text 18 45 mp3 does not work;
#X text 41 475 pd vanilla does not accept compressed audio formats
\, it should;
#X connect 7 0 1 0;
#X connect 9 0 1 0;
